<?xml version="1.0" standalone="no"?>
<!DOCTYPE svg PUBLIC "-//W3C//DTD SVG 20010904//EN"
 "http://www.w3.org/TR/2001/REC-SVG-20010904/DTD/svg10.dtd">
<svg version="1.0" xmlns="http://www.w3.org/2000/svg"
 width="1080.000000pt" height="1920.000000pt" viewBox="0 0 1080.000000 1920.000000"
 preserveAspectRatio="xMidYMid meet">

<g transform="translate(0.000000,1920.000000) scale(0.100000,-0.100000)"
fill="#000000" stroke="none">
<path d="M6510 13430 c-9 -5 -40 -10 -70 -11 -48 -3 -141 -34 -265 -90 -11 -5
-47 -18 -79 -29 -33 -11 -75 -29 -93 -40 -19 -11 -41 -20 -49 -20 -8 0 -37
-11 -66 -25 -28 -14 -56 -25 -61 -25 -4 0 -15 -7 -23 -15 -9 -8 -25 -15 -37
-15 -20 0 -57 -10 -120 -33 -31 -11 -30 -4 -12 -107 6 -34 26 -87 45 -122 6
-10 10 -22 10 -27 0 -5 7 -25 16 -46 l15 -37 47 46 c25 25 52 46 59 46 16 0
33 32 33 63 0 27 28 57 53 57 20 0 23 -40 5 -58 -13 -13 8 -36 74 -86 52 -39
78 -94 78 -166 0 -66 -20 -116 -60 -146 -24 -18 -100 -24 -170 -13 -24 4 -25
2 -22 -46 3 -55 12 -88 50 -187 24 -63 26 -66 49 -57 18 6 30 5 45 -5 21 -15
74 -12 92 5 6 5 22 9 37 9 15 0 30 4 33 9 4 5 25 12 49 16 23 4 47 10 52 14 6
4 27 13 48 20 32 11 39 10 54 -4 21 -21 28 -99 14 -150 -14 -52 7 -97 52 -113
41 -15 84 -16 92 -2 3 6 13 10 21 10 27 0 44 27 44 70 0 36 -7 50 -45 92 -49
54 -69 106 -55 142 9 25 24 34 80 47 19 4 62 15 95 25 33 9 81 19 108 21 26 3
47 9 47 13 0 5 10 12 22 16 44 13 52 31 38 77 -7 23 -18 56 -25 72 -7 17 -18
48 -25 70 -7 22 -19 54 -25 70 -7 17 -19 54 -26 83 -20 81 -14 85 113 83 100
-2 107 -1 113 19 4 12 12 19 20 16 9 -3 16 6 20 25 11 49 -12 129 -45 156 -36
29 -110 4 -110 -38 0 -25 -64 -86 -97 -93 -52 -12 -89 17 -109 83 -9 31 -22
70 -29 86 -20 47 -35 99 -35 123 0 11 -4 23 -9 26 -5 3 -12 20 -15 38 -9 45
-28 68 -46 58z m-290 -140 c0 -5 -7 -10 -15 -10 -8 0 -15 5 -15 10 0 6 7 10
15 10 8 0 15 -4 15 -10z m-123 -126 c-3 -3 -12 -4 -19 -1 -8 3 -5 6 6 6 11 1
17 -2 13 -5z m-177 -804 c0 -5 -8 -10 -17 -10 -15 0 -16 2 -3 10 19 12 20 12
20 0z"/>
<path d="M5625 12115 c-43 -19 -179 -161 -209 -219 -45 -85 -34 -111 55 -125
42 -7 60 -16 85 -44 48 -52 53 -95 19 -154 -60 -102 -112 -118 -182 -58 -23
19 -49 56 -62 84 -25 59 -56 74 -93 45 -13 -9 -52 -53 -88 -97 -36 -44 -82
-100 -102 -124 -64 -75 -64 -76 -5 -121 78 -58 236 -221 243 -248 9 -35 -12
-54 -60 -54 -25 0 -51 -8 -66 -20 -22 -17 -25 -26 -24 -83 1 -101 53 -169 128
-169 55 0 80 31 112 136 20 67 60 58 192 -42 127 -95 157 -112 200 -112 47 0
94 34 148 105 21 28 63 78 93 112 77 87 108 85 125 -9 19 -105 200 -132 269
-41 31 42 34 77 10 130 -25 54 -36 62 -90 72 -106 21 -121 37 -80 88 13 15 45
64 72 108 27 44 52 82 56 85 14 10 69 105 69 119 0 28 -212 220 -288 260 -33
17 -48 1 -62 -65 -14 -67 -47 -107 -105 -130 -39 -14 -51 -15 -90 -4 -94 26
-123 82 -91 173 18 50 38 70 102 106 29 17 55 35 59 40 13 22 -21 61 -144 169
-41 35 -124 89 -146 95 -11 3 -33 -1 -50 -8z"/>
<path d="M5018 7457 c-32 -9 -38 -15 -38 -37 0 -15 5 -40 10 -57 l11 -29 132
-1 c110 -1 140 -5 180 -22 44 -19 56 -41 22 -41 -18 0 -114 -41 -173 -74 -44
-25 -130 -109 -153 -150 -93 -162 -45 -340 111 -415 115 -56 292 -60 430 -11
52 18 59 36 35 86 -18 39 -27 40 -95 18 -74 -24 -239 -16 -303 15 -68 34 -97
80 -97 156 0 79 33 138 119 208 65 53 252 127 322 127 44 0 48 7 41 83 l-4 57
-42 0 c-37 0 -93 15 -151 39 -72 30 -215 61 -273 60 -26 -1 -64 -6 -84 -12z"/>
<path d="M6955 7421 c-16 -3 -39 -11 -49 -17 -18 -11 -19 -16 -8 -60 43 -170
42 -212 -5 -233 -44 -20 -111 -14 -138 14 -27 26 -27 28 -16 97 4 26 5 51 2
56 -3 5 -25 12 -49 15 -35 4 -45 2 -57 -16 -8 -12 -15 -34 -15 -50 0 -36 -34
-103 -59 -117 -38 -20 -100 -12 -128 16 -21 22 -25 32 -20 67 2 23 8 49 11 57
7 17 -41 40 -85 40 -25 0 -33 -18 -53 -111 -3 -14 -18 -38 -33 -53 -24 -25
-32 -27 -97 -24 -62 3 -71 5 -74 23 -9 63 -39 140 -70 175 -64 76 -129 89
-205 44 -74 -45 -117 -126 -117 -222 0 -89 48 -135 153 -145 26 -3 51 -7 54
-11 18 -18 -83 -76 -133 -76 -43 0 -93 -26 -89 -47 2 -10 7 -35 10 -56 l6 -39
42 5 c57 6 130 26 142 38 5 5 16 9 25 9 25 0 94 64 129 119 36 55 44 58 155
60 66 1 127 19 141 41 10 17 35 11 69 -15 29 -22 42 -25 122 -25 84 0 91 2
125 30 l36 29 39 -29 c36 -27 46 -29 121 -30 65 0 89 4 122 22 85 45 118 143
90 265 -22 97 -44 163 -54 162 -5 -1 -23 -4 -40 -8z m-1031 -213 c23 -36 31
-98 15 -109 -22 -14 -83 -10 -107 7 -32 22 -25 91 12 116 23 16 66 8 80 -14z"/>
<path d="M5272 7021 c-8 -5 -12 -21 -10 -37 2 -24 8 -29 35 -32 41 -4 60 24
37 56 -16 23 -39 28 -62 13z"/>
<path d="M5415 7017 c-13 -10 -16 -21 -11 -41 6 -24 11 -27 39 -24 25 2 33 8
35 26 4 25 -13 52 -32 52 -7 0 -20 -6 -31 -13z"/>
<path d="M5340 6895 c-7 -8 -10 -25 -6 -40 8 -32 55 -35 74 -5 26 42 -36 83
-68 45z"/>
<path d="M2500 5785 l0 -165 110 0 110 0 0 25 c0 25 -1 25 -80 25 l-80 0 0 45
0 45 70 0 c68 0 70 1 70 25 0 24 -2 25 -70 25 l-70 0 0 40 0 40 80 0 80 0 0
30 0 30 -110 0 -110 0 0 -165z"/>
<path d="M3050 5785 l0 -165 30 0 30 0 0 85 c0 81 1 86 25 97 43 19 55 -2 55
-98 l0 -84 36 0 36 0 -4 94 c-2 75 -7 98 -22 115 -23 26 -87 29 -110 5 -15
-14 -16 -9 -16 50 l0 66 -30 0 -30 0 0 -165z"/>
<path d="M4090 5785 l0 -165 30 0 30 0 0 85 c0 73 3 86 19 95 27 14 37 13 55
-6 12 -11 16 -36 16 -95 l0 -79 30 0 30 0 0 89 c0 74 -3 92 -21 115 -24 31
-81 36 -111 9 -17 -15 -18 -13 -18 50 l0 67 -30 0 -30 0 0 -165z"/>
<path d="M4360 5920 c0 -27 3 -30 30 -30 27 0 30 3 30 30 0 27 -3 30 -30 30
-27 0 -30 -3 -30 -30z"/>
<path d="M5201 5932 c-47 -26 -71 -74 -71 -145 0 -113 59 -174 159 -165 59 6
95 33 106 81 7 25 5 27 -22 27 -21 0 -36 -9 -51 -30 -22 -30 -62 -40 -88 -22
-40 26 -50 145 -17 190 30 41 75 41 104 3 16 -22 31 -31 51 -31 32 0 34 9 13
49 -29 56 -120 77 -184 43z"/>
<path d="M6537 5943 c-4 -3 -7 -17 -7 -30 0 -19 5 -23 30 -23 27 0 30 3 30 30
0 25 -4 30 -23 30 -13 0 -27 -3 -30 -7z"/>
<path d="M6850 5920 c0 -27 3 -30 30 -30 27 0 30 3 30 30 0 27 -3 30 -30 30
-27 0 -30 -3 -30 -30z"/>
<path d="M7665 5941 c-6 -10 -115 -310 -115 -317 0 -2 13 -4 29 -4 24 0 31 6
45 40 l16 40 60 0 59 0 12 -40 c11 -36 15 -40 44 -40 l33 0 -59 162 c-33 90
-59 164 -59 165 0 8 -60 2 -65 -6z m59 -125 c9 -27 16 -53 16 -58 0 -4 -21 -8
-46 -8 -33 0 -44 4 -41 13 3 6 14 36 23 65 10 29 21 49 25 45 3 -5 14 -30 23
-57z"/>
<path d="M7890 5785 l0 -165 25 0 c19 0 25 5 25 21 l0 20 26 -20 c50 -39 116
-23 140 34 45 109 -28 215 -117 171 -18 -9 -34 -16 -36 -16 -1 0 -3 27 -3 60
l0 60 -30 0 -30 0 0 -165z m154 3 c31 -44 9 -128 -33 -128 -36 0 -53 24 -53
73 0 27 6 54 12 62 18 22 57 18 74 -7z"/>
<path d="M8170 5920 c0 -27 3 -30 30 -30 27 0 30 3 30 30 0 27 -3 30 -30 30
-27 0 -30 -3 -30 -30z"/>
<path d="M8300 5795 c0 -142 1 -155 19 -165 33 -17 71 -13 71 9 0 10 -7 21
-15 25 -12 4 -15 30 -15 146 l0 140 -30 0 -30 0 0 -155z"/>
<path d="M8450 5921 c0 -28 3 -31 31 -31 27 0 30 3 27 28 -2 21 -9 28 -30 30
-25 3 -28 0 -28 -27z"/>
<path d="M8767 5943 c-4 -3 -7 -17 -7 -30 0 -19 5 -23 30 -23 27 0 30 3 30 30
0 25 -4 30 -23 30 -13 0 -27 -3 -30 -7z"/>
<path d="M6695 5908 c-2 -7 -5 -22 -7 -33 -2 -12 -12 -21 -26 -23 -29 -4 -31
-42 -2 -42 18 0 20 -7 20 -79 0 -71 2 -82 22 -95 12 -9 37 -16 55 -16 26 0 33
4 33 19 0 13 -8 21 -22 23 -21 3 -23 9 -26 76 -3 71 -3 72 23 72 18 0 25 5 25
20 0 15 -7 20 -25 20 -22 0 -25 4 -25 35 0 29 -4 35 -20 35 -11 0 -22 -6 -25
-12z"/>
<path d="M8602 5888 c-6 -23 -15 -34 -30 -36 -29 -4 -31 -42 -2 -42 18 0 20
-7 20 -75 0 -91 17 -115 80 -115 33 0 40 3 40 20 0 14 -7 20 -24 20 -30 0 -36
16 -36 91 0 59 0 59 30 59 23 0 30 5 30 19 0 14 -8 21 -27 23 -23 2 -29 8 -31
36 -2 24 -8 32 -22 32 -13 0 -22 -10 -28 -32z"/>
<path d="M3377 5850 c-35 -11 -57 -28 -57 -46 0 -19 32 -18 68 3 25 14 32 15
46 4 9 -7 16 -21 16 -31 0 -14 -11 -18 -56 -22 -63 -5 -85 -22 -86 -67 -2 -66
78 -97 129 -49 l23 21 0 -21 c0 -17 6 -22 25 -22 25 0 25 0 25 98 0 82 -3 102
-17 115 -23 20 -80 28 -116 17z m62 -176 c-27 -33 -95 -2 -72 34 5 10 25 19
44 22 30 4 34 2 37 -18 2 -13 -2 -30 -9 -38z"/>
<path d="M3892 5845 c-69 -30 -82 -144 -22 -197 52 -48 147 -29 163 32 7 27
-33 27 -58 0 -38 -42 -85 -11 -85 57 0 64 51 95 87 53 18 -21 63 -28 63 -10 0
20 -56 70 -85 75 -16 3 -45 -2 -63 -10z"/>
<path d="M4845 5855 c-5 -2 -22 -6 -37 -9 -54 -12 -71 -72 -31 -112 14 -14 14
-17 -6 -30 -24 -17 -28 -42 -6 -50 11 -5 8 -11 -11 -27 -50 -43 -4 -77 105
-77 85 0 124 24 119 73 -4 39 -31 54 -110 62 -66 7 -78 25 -18 25 68 0 110 30
110 80 0 10 7 20 15 24 8 3 15 15 15 27 0 16 -4 19 -17 13 -22 -9 -60 -11 -93
-2 -14 3 -29 5 -35 3z m53 -67 c4 -32 -20 -52 -52 -44 -35 9 -44 45 -17 67 29
23 65 11 69 -23z m16 -168 c5 -5 6 -16 3 -24 -5 -12 -20 -16 -55 -16 -59 0
-82 19 -56 45 13 12 26 15 58 10 22 -4 45 -11 50 -15z"/>
<path d="M5523 5853 c-12 -2 -34 -18 -48 -34 -20 -25 -25 -41 -25 -86 0 -47 4
-59 29 -84 37 -36 104 -41 144 -9 68 54 53 182 -25 209 -32 11 -37 11 -75 4z
m75 -76 c32 -66 -21 -145 -68 -102 -23 21 -28 103 -8 123 21 21 61 10 76 -21z"/>
<path d="M5777 5850 c-35 -11 -57 -28 -57 -46 0 -19 32 -18 68 3 25 14 32 15
46 4 9 -7 16 -21 16 -31 0 -14 -11 -18 -56 -22 -63 -5 -85 -22 -86 -67 -2 -66
78 -97 129 -49 l23 21 0 -21 c0 -17 6 -22 25 -22 25 0 25 0 25 98 0 82 -3 102
-17 115 -23 20 -80 28 -116 17z m62 -176 c-27 -33 -95 -2 -72 34 5 10 25 19
44 22 30 4 34 2 37 -18 2 -13 -2 -30 -9 -38z"/>
<path d="M6047 5849 c-21 -3 -45 -13 -54 -22 -22 -22 -19 -64 7 -93 18 -18 20
-24 8 -24 -9 0 -21 -7 -28 -15 -10 -13 -10 -19 3 -33 15 -16 15 -19 -3 -30
-11 -7 -20 -21 -20 -32 0 -33 38 -50 113 -50 94 0 127 18 127 72 0 37 -30 54
-107 63 -35 4 -63 10 -63 15 0 4 25 10 57 12 62 5 93 30 93 73 0 15 8 26 20
30 11 3 20 15 20 26 0 22 0 22 -35 9 -15 -6 -42 -7 -63 -2 -20 4 -54 5 -75 1z
m57 -32 c38 -27 -2 -95 -41 -71 -25 16 -29 55 -7 71 10 7 21 13 24 13 3 0 14
-6 24 -13z m34 -199 c25 -21 -7 -39 -62 -36 -40 2 -52 7 -54 22 -2 10 2 23 10
27 15 11 87 1 106 -13z"/>
<path d="M7263 5845 c-39 -17 -63 -61 -63 -116 0 -34 6 -47 35 -76 33 -33 38
-35 87 -31 41 4 57 11 77 34 l25 29 -27 3 c-15 2 -37 -4 -49 -12 -29 -21 -51
-20 -71 2 -32 35 -21 42 63 42 74 0 80 2 80 20 0 44 -29 90 -64 105 -43 18
-52 18 -93 0z m85 -47 c26 -26 13 -38 -38 -38 -54 0 -55 1 -40 31 12 22 59 26
78 7z"/>
<path d="M8954 5853 c-52 -10 -87 -85 -73 -152 10 -49 39 -73 96 -78 42 -5 53
-1 81 22 40 33 40 45 2 45 -16 0 -30 -4 -30 -10 0 -16 -46 -23 -69 -10 -12 6
-21 20 -21 30 0 18 7 20 75 20 l75 0 0 35 c0 64 -68 113 -136 98z m74 -70 c3
-21 -1 -23 -42 -23 -31 0 -46 4 -46 13 0 23 24 38 55 35 22 -2 31 -9 33 -25z"/>
<path d="M9195 5849 c-54 -16 -73 -70 -36 -103 11 -10 41 -23 68 -30 37 -9 48
-17 48 -32 0 -25 -56 -32 -75 -10 -16 20 -60 21 -60 2 0 -26 50 -56 92 -56 64
0 98 24 98 71 0 34 -24 55 -82 69 -55 14 -69 36 -33 52 19 9 29 7 49 -6 24
-15 66 -22 66 -10 0 19 -24 43 -51 53 -37 13 -43 13 -84 0z"/>
<path d="M2780 5735 l0 -115 30 0 30 0 0 85 c0 73 3 86 19 95 27 14 37 13 55
-6 12 -11 16 -36 16 -95 l0 -79 30 0 30 0 0 89 c0 74 -3 92 -21 115 -24 31
-81 36 -111 9 -17 -15 -18 -15 -18 0 0 12 -9 17 -30 17 l-30 0 0 -115z"/>
<path d="M3580 5735 l0 -115 30 0 30 0 0 85 c0 81 1 86 25 97 43 19 55 -2 55
-98 l0 -84 36 0 36 0 -4 94 c-2 75 -7 98 -22 115 -21 23 -74 28 -107 11 -13
-7 -19 -7 -19 0 0 5 -13 10 -30 10 l-30 0 0 -115z"/>
<path d="M4360 5735 l0 -115 30 0 30 0 0 115 0 115 -30 0 -30 0 0 -115z"/>
<path d="M4480 5735 l0 -115 30 0 30 0 0 71 c0 97 24 134 71 109 16 -9 19 -22
19 -95 l0 -85 30 0 30 0 0 99 c0 92 -2 101 -22 115 -27 19 -89 21 -107 4 -11
-10 -14 -10 -18 0 -3 6 -18 12 -34 12 l-29 0 0 -115z"/>
<path d="M6260 5735 l0 -115 30 0 30 0 0 79 c0 59 4 84 16 95 18 19 28 20 55
6 16 -9 19 -22 19 -95 l0 -85 30 0 30 0 0 95 c0 82 -3 98 -20 115 -25 25 -86
27 -112 3 -17 -15 -18 -15 -18 0 0 12 -9 17 -30 17 l-30 0 0 -115z"/>
<path d="M6530 5735 l0 -115 30 0 30 0 0 115 0 115 -30 0 -30 0 0 -115z"/>
<path d="M6850 5735 l0 -115 30 0 30 0 0 115 0 115 -30 0 -30 0 0 -115z"/>
<path d="M6960 5841 c0 -5 6 -24 14 -42 7 -19 26 -67 40 -106 23 -60 32 -73
50 -73 19 0 28 15 61 107 22 58 42 110 43 115 2 4 -9 8 -25 8 -27 0 -31 -5
-52 -70 -12 -39 -26 -68 -32 -65 -5 4 -9 10 -9 15 0 5 -9 34 -21 65 -17 46
-24 55 -45 55 -13 0 -24 -4 -24 -9z"/>
<path d="M8170 5735 l0 -115 30 0 30 0 0 115 0 115 -30 0 -30 0 0 -115z"/>
<path d="M8450 5735 l0 -115 30 0 30 0 0 115 0 115 -30 0 -30 0 0 -115z"/>
<path d="M8760 5735 l0 -115 30 0 30 0 0 115 0 115 -30 0 -30 0 0 -115z"/>
<path d="M2990 5311 c-19 -5 -27 -16 -34 -49 -7 -30 -15 -42 -28 -42 -11 0
-18 -7 -18 -20 0 -13 7 -20 20 -20 19 0 20 -7 20 -95 l0 -95 30 0 30 0 0 95
c0 95 0 95 25 95 18 0 25 5 25 20 0 13 -7 20 -20 20 -11 0 -23 7 -26 15 -8 20
13 45 38 45 13 0 18 6 16 18 -3 19 -38 25 -78 13z"/>
<path d="M3210 5155 l0 -168 78 5 c91 5 128 21 159 67 31 46 32 141 3 189 -26
42 -65 58 -162 67 l-78 7 0 -167z m139 104 c77 -27 83 -167 10 -205 -16 -8
-42 -14 -59 -14 l-30 0 0 108 c0 60 3 112 7 115 9 10 36 8 72 -4z"/>
<path d="M4917 5313 c-4 -3 -7 -17 -7 -30 0 -19 5 -23 30 -23 27 0 30 3 30 30
0 25 -4 30 -23 30 -13 0 -27 -3 -30 -7z"/>
<path d="M5400 5155 l0 -165 30 0 c30 0 30 0 30 59 l0 59 66 4 c58 4 70 8 90
32 32 36 32 95 1 131 -25 30 -78 44 -164 45 l-53 0 0 -165z m164 102 c21 -16
24 -60 6 -82 -8 -10 -30 -15 -61 -15 l-49 0 0 55 0 55 43 0 c24 0 51 -6 61
-13z"/>
<path d="M6147 5313 c-4 -3 -7 -17 -7 -30 0 -19 5 -23 30 -23 27 0 30 3 30 30
0 25 -4 30 -23 30 -13 0 -27 -3 -30 -7z"/>
<path d="M7300 5290 c0 -29 1 -30 50 -30 l50 0 0 -135 0 -135 30 0 30 0 0 135
0 135 51 0 c49 0 50 1 47 28 l-3 27 -127 3 -128 3 0 -31z"/>
<path d="M8590 5155 l0 -165 30 0 30 0 0 79 c0 59 4 84 16 95 18 19 28 20 55
6 16 -9 19 -22 19 -95 l0 -85 30 0 30 0 0 95 c0 82 -3 98 -20 115 -25 25 -86
27 -112 3 -17 -15 -18 -13 -18 50 l0 67 -30 0 -30 0 0 -165z"/>
<path d="M4754 5255 c-4 -25 -11 -35 -25 -35 -26 0 -25 -36 1 -43 18 -5 20
-14 20 -86 0 -90 8 -101 74 -101 29 0 36 4 36 20 0 15 -7 20 -25 20 -24 0 -25
2 -25 75 0 73 1 75 25 75 18 0 25 5 25 20 0 15 -7 20 -25 20 -22 0 -25 4 -25
35 0 30 -3 35 -25 35 -20 0 -25 -6 -31 -35z"/>
<path d="M5984 5255 c-4 -25 -11 -35 -25 -35 -26 0 -25 -36 1 -43 18 -5 20
-14 20 -86 0 -90 8 -101 74 -101 29 0 36 4 36 20 0 15 -7 20 -25 20 -24 0 -25
2 -25 75 0 73 1 75 25 75 18 0 25 5 25 20 0 15 -7 20 -25 20 -22 0 -25 4 -25
35 0 30 -3 35 -25 35 -20 0 -25 -6 -31 -35z"/>
<path d="M6830 5271 c0 -33 -11 -51 -31 -51 -12 0 -19 -7 -19 -20 0 -13 7 -20
20 -20 18 0 20 -7 20 -79 0 -93 11 -111 71 -111 32 0 39 4 39 19 0 13 -8 21
-22 23 -21 3 -23 9 -26 76 -3 71 -3 72 23 72 18 0 25 5 25 20 0 15 -7 20 -25
20 -22 0 -25 4 -25 35 0 31 -3 35 -25 35 -18 0 -25 -5 -25 -19z"/>
<path d="M8432 5258 c-6 -23 -15 -34 -30 -36 -29 -4 -31 -42 -2 -42 18 0 20
-7 20 -75 0 -91 17 -115 80 -115 33 0 40 3 40 20 0 14 -7 20 -24 20 -30 0 -36
16 -36 91 0 59 0 59 30 59 23 0 30 5 30 19 0 14 -8 21 -27 23 -23 2 -29 8 -31
36 -2 24 -8 32 -22 32 -13 0 -22 -10 -28 -32z"/>
<path d="M2733 5223 c-12 -2 -34 -18 -48 -34 -20 -25 -25 -41 -25 -86 0 -47 4
-59 29 -84 37 -36 104 -41 144 -9 68 54 53 182 -25 209 -32 11 -37 11 -75 4z
m75 -76 c32 -66 -21 -145 -68 -102 -23 21 -28 103 -8 123 21 21 61 10 76 -21z"/>
<path d="M3580 5212 c-41 -20 -60 -53 -60 -105 0 -73 42 -117 111 -117 49 0
99 33 99 66 0 10 -47 2 -64 -11 -26 -19 -51 -19 -70 1 -33 33 -20 43 62 46
l77 3 -4 35 c-4 50 -18 70 -56 86 -44 18 -53 18 -95 -4z m90 -51 c15 -30 14
-31 -40 -31 -34 0 -50 4 -50 13 0 38 71 52 90 18z"/>
<path d="M3900 5223 c-8 -3 -23 -12 -32 -21 -16 -14 -18 -13 -18 1 0 12 -9 17
-30 17 l-30 0 0 -115 0 -115 30 0 30 0 0 85 c0 74 2 86 20 95 14 8 26 8 40 0
18 -9 20 -21 20 -95 l0 -85 30 0 30 0 0 79 c0 80 12 111 44 111 27 0 36 -26
36 -107 l0 -83 35 0 35 0 0 73 c0 99 -13 142 -48 156 -29 12 -73 3 -86 -18 -4
-6 -19 -3 -39 9 -33 21 -42 22 -67 13z"/>
<path d="M4246 5215 c-54 -29 -76 -88 -56 -150 16 -49 53 -75 107 -75 37 0 50
5 76 33 l32 32 -28 3 c-16 2 -36 -3 -46 -12 -25 -23 -57 -20 -75 6 -9 12 -16
26 -16 30 0 5 37 8 81 8 l82 0 -6 42 c-10 75 -87 117 -151 83z m82 -47 c26
-26 13 -38 -38 -38 -54 0 -55 1 -40 31 12 22 59 26 78 7z"/>
<path d="M5097 5220 c-35 -11 -57 -28 -57 -46 0 -19 35 -18 65 2 27 17 60 12
69 -12 10 -25 -2 -34 -45 -34 -41 0 -78 -14 -91 -34 -16 -24 -8 -75 14 -90 33
-23 83 -20 108 6 l20 22 0 -22 c0 -17 6 -22 25 -22 25 0 25 0 25 98 0 53 -4
103 -8 110 -8 12 -66 33 -87 31 -5 0 -23 -5 -38 -9z m79 -154 c-12 -49 -90
-48 -84 1 2 23 9 29 38 34 43 6 54 -2 46 -35z"/>
<path d="M5745 5219 c-28 -8 -55 -33 -55 -51 0 -11 57 -10 62 1 6 16 44 21 63
7 31 -23 12 -46 -38 -46 -83 0 -127 -70 -77 -120 26 -26 83 -27 109 -1 19 19
19 19 24 0 3 -13 14 -19 31 -19 26 0 26 0 26 84 0 104 -9 130 -51 145 -37 13
-52 13 -94 0z m79 -156 c-7 -22 -17 -29 -42 -31 -59 -6 -55 57 4 69 39 7 50
-4 38 -38z"/>
<path d="M6320 5212 c-41 -20 -60 -53 -60 -105 0 -73 42 -117 111 -117 49 0
99 33 99 66 0 10 -47 2 -64 -11 -26 -19 -51 -19 -70 1 -33 33 -20 43 62 46
l77 3 -4 35 c-4 50 -18 70 -56 86 -44 18 -53 18 -95 -4z m90 -51 c15 -30 14
-31 -40 -31 -34 0 -50 4 -50 13 0 38 71 52 90 18z"/>
<path d="M7035 5219 c-54 -16 -73 -70 -36 -103 11 -10 41 -23 68 -30 37 -9 48
-17 48 -32 0 -25 -56 -32 -75 -10 -16 20 -60 21 -60 2 0 -26 50 -56 92 -56 64
0 98 24 98 71 0 34 -24 55 -82 69 -55 14 -69 36 -33 52 19 9 29 7 49 -6 24
-15 66 -22 66 -10 0 19 -24 43 -51 53 -37 13 -43 13 -84 0z"/>
<path d="M7663 5223 c-12 -2 -34 -18 -48 -34 -20 -25 -25 -41 -25 -86 0 -47 4
-59 29 -84 37 -36 104 -41 144 -9 68 54 53 182 -25 209 -32 11 -37 11 -75 4z
m75 -76 c32 -66 -21 -145 -68 -102 -23 21 -28 103 -8 123 21 21 61 10 76 -21z"/>
<path d="M7927 5219 c-21 -3 -45 -13 -54 -22 -22 -22 -19 -64 7 -93 18 -18 20
-24 8 -24 -9 0 -21 -7 -28 -15 -10 -13 -10 -19 3 -33 15 -16 15 -19 -3 -30
-11 -7 -20 -21 -20 -32 0 -33 38 -50 113 -50 94 0 127 18 127 72 0 37 -30 54
-107 63 -35 4 -63 10 -63 15 0 4 25 10 57 12 62 5 93 30 93 73 0 15 8 26 20
30 11 3 20 15 20 26 0 22 0 22 -35 9 -15 -6 -42 -7 -63 -2 -20 4 -54 5 -75 1z
m57 -32 c22 -16 18 -55 -6 -71 -40 -24 -80 44 -42 71 10 7 21 13 24 13 3 0 14
-6 24 -13z m34 -199 c25 -21 -7 -39 -62 -36 -40 2 -52 7 -54 22 -2 10 2 23 10
27 15 11 87 1 106 -13z"/>
<path d="M8193 5215 c-39 -17 -63 -61 -63 -116 0 -34 6 -47 35 -76 33 -33 38
-35 87 -31 41 4 57 11 77 34 l25 29 -27 3 c-15 2 -37 -4 -49 -12 -29 -21 -51
-20 -71 2 -32 35 -21 42 63 42 74 0 80 2 80 20 0 44 -29 90 -64 105 -43 18
-52 18 -93 0z m85 -47 c26 -26 13 -38 -38 -38 -54 0 -55 1 -40 31 12 22 59 26
78 7z"/>
<path d="M8910 5212 c-41 -20 -60 -53 -60 -105 0 -73 42 -117 111 -117 49 0
99 33 99 66 0 10 -47 2 -64 -11 -26 -19 -51 -19 -70 1 -33 33 -20 43 62 46
l77 3 -4 35 c-4 50 -18 70 -56 86 -44 18 -53 18 -95 -4z m90 -51 c15 -30 14
-31 -40 -31 -34 0 -50 4 -50 13 0 38 71 52 90 18z"/>
<path d="M9222 5220 c-12 -5 -25 -16 -28 -25 -9 -22 -24 -19 -24 5 0 15 -7 20
-25 20 l-25 0 0 -115 0 -115 30 0 30 0 0 80 c0 85 9 100 59 100 17 0 21 6 21
30 0 32 -3 34 -38 20z"/>
<path d="M4450 5105 l0 -115 30 0 30 0 0 79 c0 59 4 84 16 95 18 19 28 20 55
6 16 -9 19 -22 19 -95 l0 -85 30 0 30 0 0 95 c0 82 -3 98 -20 115 -25 25 -86
27 -112 3 -17 -15 -18 -15 -18 0 0 12 -9 17 -30 17 l-30 0 0 -115z"/>
<path d="M4910 5105 l0 -115 30 0 30 0 0 115 0 115 -30 0 -30 0 0 -115z"/>
<path d="M6140 5105 l0 -115 30 0 30 0 0 115 0 115 -30 0 -30 0 0 -115z"/>
<path d="M6530 5105 l0 -115 30 0 30 0 0 85 c0 81 1 86 25 97 43 19 55 -2 55
-98 l0 -84 36 0 36 0 -4 94 c-2 75 -7 98 -22 115 -21 23 -74 28 -107 11 -13
-7 -19 -7 -19 0 0 5 -13 10 -30 10 l-30 0 0 -115z"/>
</g>
</svg>
